<svg width="410.000000" height="315.000000" viewBox="0 0 410 315" fill="none" xmlns="http://www.w3.org/2000/svg" xmlns:xlink="http://www.w3.org/1999/xlink">
	<desc>
			Created with Pixso.
	</desc>
	<defs>
		<clipPath id="clip227_269">
			<rect id="Illustration" width="409.879486" height="315.000000" fill="white" fill-opacity="0"/>
		</clipPath>
	</defs>
	<rect id="Illustration" width="409.879486" height="315.000000" fill="#FFFFFF" fill-opacity="0"/>
	<g clip-path="url(#clip227_269)">
		<path id="Vector" d="M29.21 290.19C37.93 306.42 56.43 313.38 56.43 313.38C56.43 313.38 60.8 294.04 52.08 277.81C43.36 261.58 24.86 254.61 24.86 254.61C24.86 254.61 20.49 273.96 29.21 290.19Z" fill="#FFA542" fill-opacity="1.000000" fill-rule="nonzero"/>
		<path id="Vector" d="M35.2 284.85C50.94 294.35 57.01 313.23 57.01 313.23C57.01 313.23 37.54 316.7 21.8 307.2C6.06 297.69 0 278.81 0 278.81C0 278.81 19.46 275.34 35.2 284.85Z" fill="#FFCE7F" fill-opacity="1.000000" fill-rule="nonzero"/>
		<path id="Vector" d="M289.94 -186.4L388.16 -186.4L388.16 -184.99L289.94 -184.99L289.94 -186.4Z" fill="#F2F2F2" fill-opacity="1.000000" fill-rule="evenodd"/>
		<path id="Vector" d="M360.1 -185.34L361.5 -185.34L361.5 -172.32L360.1 -172.32L360.1 -185.34Z" fill="#F2F2F2" fill-opacity="1.000000" fill-rule="evenodd"/>
		<path id="Vector" d="M317.3 -185.34L318.7 -185.34L318.7 -172.32L317.3 -172.32L317.3 -185.34Z" fill="#F2F2F2" fill-opacity="1.000000" fill-rule="evenodd"/>
		<path id="Vector" d="M339.75 -118.8L437.98 -118.8L437.98 -117.39L339.75 -117.39L339.75 -118.8Z" fill="#F2F2F2" fill-opacity="1.000000" fill-rule="evenodd"/>
		<path id="Vector" d="M366.41 -131.48L367.82 -131.48L367.82 -118.45L366.41 -118.45L366.41 -131.48Z" fill="#F2F2F2" fill-opacity="1.000000" fill-rule="evenodd"/>
		<path id="Vector" d="M409.21 -131.48L410.62 -131.48L410.62 -118.45L409.21 -118.45L409.21 -131.48Z" fill="#F2F2F2" fill-opacity="1.000000" fill-rule="evenodd"/>
		<path id="Vector" d="M470.25 -87.12L568.48 -87.12L568.48 -85.71L470.25 -85.71L470.25 -87.12Z" fill="#F2F2F2" fill-opacity="1.000000" fill-rule="evenodd"/>
		<path id="Vector" d="M496.92 -99.79L498.32 -99.79L498.32 -86.76L496.92 -86.76L496.92 -99.79Z" fill="#F2F2F2" fill-opacity="1.000000" fill-rule="evenodd"/>
		<path id="Vector" d="M539.71 -99.79L541.12 -99.79L541.12 -86.76L539.71 -86.76L539.71 -99.79Z" fill="#F2F2F2" fill-opacity="1.000000" fill-rule="evenodd"/>
		<path id="Vector" d="M460.43 239.61L558.66 239.61L558.66 241.02L460.43 241.02L460.43 239.61Z" fill="#F2F2F2" fill-opacity="1.000000" fill-rule="evenodd"/>
		<path id="Vector" d="M487.09 226.93L488.5 226.93L488.5 239.96L487.09 239.96L487.09 226.93Z" fill="#F2F2F2" fill-opacity="1.000000" fill-rule="evenodd"/>
		<path id="Vector" d="M529.89 226.93L531.29 226.93L531.29 239.96L529.89 239.96L529.89 226.93Z" fill="#F2F2F2" fill-opacity="1.000000" fill-rule="evenodd"/>
		<path id="Vector" d="M292.74 13.58L390.97 13.58L390.97 14.98L292.74 14.98L292.74 13.58Z" fill="#F2F2F2" fill-opacity="1.000000" fill-rule="evenodd"/>
		<path id="Vector" d="M319.41 0.9L320.81 0.9L320.81 13.93L319.41 13.93L319.41 0.9Z" fill="#F2F2F2" fill-opacity="1.000000" fill-rule="evenodd"/>
		<path id="Vector" d="M362.2 0.9L363.61 0.9L363.61 13.93L362.2 13.93L362.2 0.9Z" fill="#F2F2F2" fill-opacity="1.000000" fill-rule="evenodd"/>
		<path id="Vector" d="M323.62 183.28L421.84 183.28L421.84 184.68L323.62 184.68L323.62 183.28Z" fill="#F2F2F2" fill-opacity="1.000000" fill-rule="evenodd"/>
		<path id="Vector" d="M350.28 170.6L351.68 170.6L351.68 183.63L350.28 183.63L350.28 170.6Z" fill="#F2F2F2" fill-opacity="1.000000" fill-rule="evenodd"/>
		<path id="Vector" d="M393.08 170.6L394.48 170.6L394.48 183.63L393.08 183.63L393.08 170.6Z" fill="#F2F2F2" fill-opacity="1.000000" fill-rule="evenodd"/>
		<path id="Vector" d="M480.78 131.87L579 131.87L579 133.28L480.78 133.28L480.78 131.87Z" fill="#F2F2F2" fill-opacity="1.000000" fill-rule="evenodd"/>
		<path id="Vector" d="M507.44 119.2L508.84 119.2L508.84 132.23L507.44 132.23L507.44 119.2Z" fill="#F2F2F2" fill-opacity="1.000000" fill-rule="evenodd"/>
		<path id="Vector" d="M550.24 119.2L551.64 119.2L551.64 132.23L550.24 132.23L550.24 119.2Z" fill="#F2F2F2" fill-opacity="1.000000" fill-rule="evenodd"/>
		<path id="Vector" d="M254.02 282.75L87.89 282.75L87.89 281.56L252.83 281.56L252.83 223.38L101.86 223.38L94.52 208.04L95.6 207.53L102.61 222.18L254.02 222.18L254.02 282.75Z" fill="#2F2E41" fill-opacity="1.000000" fill-rule="nonzero"/>
		<path id="Vector" d="M122.55 299.55C122.55 306.5 116.93 312.14 110 312.14C103.07 312.14 97.45 306.5 97.45 299.55C97.45 292.59 103.07 286.95 110 286.95C116.93 286.95 122.55 292.59 122.55 299.55Z" fill="#101010" fill-opacity="1.000000" fill-rule="evenodd"/>
		<path id="Vector" d="M246.26 299.55C246.26 306.5 240.64 312.14 233.71 312.14C226.77 312.14 221.16 306.5 221.16 299.55C221.16 292.59 226.77 286.95 233.71 286.95C240.64 286.95 246.26 292.59 246.26 299.55Z" fill="#101010" fill-opacity="1.000000" fill-rule="evenodd"/>
		<path id="Vector" d="M387.29 32.06C387.29 36.36 383.81 39.85 379.52 39.85C375.23 39.85 371.75 36.36 371.75 32.06C371.75 27.75 375.23 24.26 379.52 24.26C383.81 24.26 387.29 27.75 387.29 32.06Z" fill="#FFA542" fill-opacity="1.000000" fill-rule="evenodd"/>
		<path id="Vector" d="M271.79 203.59L85.06 203.59L44.65 71.04L313.4 71.04L313.16 71.82L271.79 203.59ZM85.94 202.39L270.92 202.39L311.77 72.24L46.27 72.24L85.94 202.39Z" fill="#2F2E41" fill-opacity="1.000000" fill-rule="nonzero"/>
		<path id="Vector" d="M257.22 196.69L93.2 196.69L57.71 79.14L293.76 79.14L293.55 79.83L257.22 196.69Z" fill="#F2F2F2" fill-opacity="1.000000" fill-rule="nonzero"/>
		<path id="Vector" d="M316.75 59.2L315.6 58.89L323.48 29.06L369.36 29.06L369.36 30.26L324.4 30.26L316.75 59.2Z" fill="#2F2E41" fill-opacity="1.000000" fill-rule="nonzero"/>
		<path id="Vector" d="M57.71 111.22L299.97 111.22L299.97 112.42L57.71 112.42L57.71 111.22Z" fill="#2F2E41" fill-opacity="1.000000" fill-rule="evenodd"/>
		<path id="Vector" d="M71.18 155.42L286.1 155.42L286.1 156.62L71.18 156.62L71.18 155.42Z" fill="#2F2E41" fill-opacity="1.000000" fill-rule="evenodd"/>
		<path id="Vector" d="M178.43 71.64L179.62 71.64L179.62 202.99L178.43 202.99L178.43 71.64Z" fill="#2F2E41" fill-opacity="1.000000" fill-rule="evenodd"/>
		<path id="Vector" d="M224.55 202.95L233.13 71.6L234.33 71.68L225.75 203.02L224.55 202.95Z" fill="#2F2E41" fill-opacity="1.000000" fill-rule="evenodd"/>
		<path id="Vector" d="M123.75 71.68L124.94 71.6L133.47 202.95L132.28 203.03L123.75 71.68Z" fill="#2F2E41" fill-opacity="1.000000" fill-rule="evenodd"/>
		<path id="Vector" d="M0 312.48L389.76 312.48L389.76 315L0 315L0 312.48Z" fill="#090909" fill-opacity="1.000000" fill-rule="evenodd"/>
		<path id="Vector" d="M42.27 36.81L140.49 36.81L140.49 38.22L42.27 38.22L42.27 36.81Z" fill="#F2F2F2" fill-opacity="1.000000" fill-rule="evenodd"/>
		<path id="Vector" d="M68.93 24.14L70.33 24.14L70.33 37.17L68.93 37.17L68.93 24.14Z" fill="#F2F2F2" fill-opacity="1.000000" fill-rule="evenodd"/>
		<path id="Vector" d="M111.73 24.14L113.13 24.14L113.13 37.17L111.73 37.17L111.73 24.14Z" fill="#F2F2F2" fill-opacity="1.000000" fill-rule="evenodd"/>
		<path id="Vector" d="M76.65 -171.61L174.87 -171.61L174.87 -170.2L76.65 -170.2L76.65 -171.61Z" fill="#F2F2F2" fill-opacity="1.000000" fill-rule="evenodd"/>
		<path id="Vector" d="M146.81 -170.56L148.21 -170.56L148.21 -157.53L146.81 -157.53L146.81 -170.56Z" fill="#F2F2F2" fill-opacity="1.000000" fill-rule="evenodd"/>
		<path id="Vector" d="M104.01 -170.56L105.41 -170.56L105.41 -157.53L104.01 -157.53L104.01 -170.56Z" fill="#F2F2F2" fill-opacity="1.000000" fill-rule="evenodd"/>
		<path id="Vector" d="M175.57 -32.9L273.8 -32.9L273.8 -31.49L175.57 -31.49L175.57 -32.9Z" fill="#F2F2F2" fill-opacity="1.000000" fill-rule="evenodd"/>
		<path id="Vector" d="M245.74 -31.84L247.14 -31.84L247.14 -18.81L245.74 -18.81L245.74 -31.84Z" fill="#F2F2F2" fill-opacity="1.000000" fill-rule="evenodd"/>
		<path id="Vector" d="M202.94 -31.84L204.34 -31.84L204.34 -18.81L202.94 -18.81L202.94 -31.84Z" fill="#F2F2F2" fill-opacity="1.000000" fill-rule="evenodd"/>
		<path id="Vector" d="M8.59 -33.6L106.82 -33.6L106.82 -32.19L8.59 -32.19L8.59 -33.6Z" fill="#F2F2F2" fill-opacity="1.000000" fill-rule="evenodd"/>
		<path id="Vector" d="M78.75 -32.54L80.15 -32.54L80.15 -19.52L78.75 -19.52L78.75 -32.54Z" fill="#F2F2F2" fill-opacity="1.000000" fill-rule="evenodd"/>
		<path id="Vector" d="M35.95 -32.54L37.36 -32.54L37.36 -19.52L35.95 -19.52L35.95 -32.54Z" fill="#F2F2F2" fill-opacity="1.000000" fill-rule="evenodd"/>
		<path id="Vector" d="M126.46 -104.02L224.69 -104.02L224.69 -102.61L126.46 -102.61L126.46 -104.02Z" fill="#F2F2F2" fill-opacity="1.000000" fill-rule="evenodd"/>
		<path id="Vector" d="M153.12 -116.69L154.53 -116.69L154.53 -103.66L153.12 -103.66L153.12 -116.69Z" fill="#F2F2F2" fill-opacity="1.000000" fill-rule="evenodd"/>
		<path id="Vector" d="M195.92 -116.69L197.32 -116.69L197.32 -103.66L195.92 -103.66L195.92 -116.69Z" fill="#F2F2F2" fill-opacity="1.000000" fill-rule="evenodd"/>
	</g>
</svg>
